<?xml version="1.0" encoding="utf-8"?>
<!-- Generator: Adobe Illustrator 26.0.2, SVG Export Plug-In . SVG Version: 6.00 Build 0)  -->
<svg version="1.1" id="Capa_1" xmlns="http://www.w3.org/2000/svg" xmlns:xlink="http://www.w3.org/1999/xlink" x="0px" y="0px"
	 viewBox="0 0 560 110" style="enable-background:new 0 0 560 110;" xml:space="preserve">
<style type="text/css">
	.st0{fill-rule:evenodd;clip-rule:evenodd;fill:#00AEEF;}
</style>
<g>
	<path class="st0" d="M163.3,81.8h-20c2.6-2.4,3.3-10.8,4.2-26.2l0.2-3.5c0.7-8.5,0.9-15.3,0.9-20c0-4-0.5-6.6-1.6-7.5h22.4
		c5.4,0,16,0.2,16,11.3c0,7.5-6.8,12-13.2,13.7c9,0.7,15.6,5.2,15.6,14.4C188.1,73.7,178.7,81.8,163.3,81.8 M162.6,53.9h-4l-0.7,8.5
		c-0.2,3.8-0.5,6.8-0.5,10.6c0,0.5,1.6,1.6,5.4,1.6c8,0,13.2-4,13.2-10.6C176.3,56.8,169.9,53.9,162.6,53.9 M164.3,31.3
		c-1.2,0-2.6,0-4,0.2c-0.7,4-0.9,7.8-1.2,12.3c0,0-0.2,3.5-0.2,3.3h1.4c7.3,0,13.9-2.6,13.9-9.2C174.4,34.1,171.1,31.3,164.3,31.3
		 M235,82.2c-4.9,0-5.4-0.2-9.2-13.7l-1.4-4.9c-2.4,1.2-6.6,1.6-13.2,1.6h-6.8l-1.2,2.6c-1.2,2.6-4,8-4,11.3c0,0.7,0,1.4,0.2,2.6
		h-13.7c3.8-3.8,9-13,15.8-27.6l4-8.5c3.5-7.8,7.5-16.5,7.5-17.7c0-1.2-0.2-2.1-0.7-3.3h12.5c0,0,3.3,12.3,6.1,22.6l2.4,9
		c4.2,15.3,7.1,22.6,10.4,25.5C240.4,82,236.4,82.2,235,82.2 M217.1,37.9l-9.4,20h15.1L217.1,37.9z M289.2,84.1
		c-4.2,0-5.2-0.7-6.6-2.6l-16.3-22.2c-1.2-1.9-2.4-3.1-4.2-3.1h-0.2l-0.2,4.5c-0.2,5.9-0.7,10.6-0.7,14.1c0,3.8,0.5,6.1,1.6,7.1H247
		c2.4-1.9,3.1-8.5,4.5-26.2l0.2-3.5c0.7-8.5,0.9-15.3,0.9-20c0-4-0.5-6.6-1.6-7.5h21c7.1,0,16.3,1.2,16.3,12.3
		c0,9.2-6.1,14.1-13.7,16.5c0.7,0.7,2.1,2.4,2.8,3.3L289,72.1c7.3,9.7,7.8,10.1,10.4,11.3C296.3,83.9,292,84.1,289.2,84.1
		 M268.5,31.5c-1.4,0-3.1,0-4.5,0.2c-0.5,2.4-0.7,6.6-1.2,13.4l-0.2,4c0.7,0.2,1.9,0.2,2.6,0.2c7.1,0,12-4.5,12-10.8
		C276.9,34.1,273.9,31.5,268.5,31.5 M319.6,82.9c-14.8,0-23.3-12.3-23.3-25.7c0-18.9,10.4-33.7,29.9-33.7c6.1,0,9,1.2,14.1,1.2
		l-1.4,14.6c-2.8-5.2-7.5-8.5-13.7-8.5C313,30.8,308,44,308,55.4c0,12.3,7.1,19.1,16,19.1c5,0,9.4-1.2,16.7-6.4
		C337.7,77,330.9,82.9,319.6,82.9 M420.5,82.2c-4.9,0-5.2-0.2-9.2-13.7l-1.4-4.9c-2.4,1.2-6.6,1.6-13.2,1.6h-7.1l-1.2,2.6
		c-1.9,3.8-4,8.2-4,11.3c0,0.7,0.2,1.6,0.2,2.6h-40.5c2.4-2.6,3.1-11.1,4.2-26.2l0.2-3.5c0.7-8.7,0.9-15.3,0.9-20
		c0-3.8-0.5-6.4-1.4-7.5h15.8c-2.4,1.6-3.1,10.8-4,26.2l-0.2,3.5c-0.2,5.7-1.2,11.5-1.2,17c0,2.6,0.9,3.3,3.8,3.3
		c9.7,0,11.8-0.2,16.3-3.1c2.8-4.9,5.7-11.1,8.7-17.4l4-8.5c3.8-8,7.5-16.3,7.5-17.7c0-1.2-0.2-2.1-0.7-3.3h12.5
		c0,0,5,18.6,6.1,22.6l2.4,9c4.2,15.3,6.8,22.6,10.6,25.5C426.4,82,421.9,82.2,420.5,82.2 M402.6,37.9l-9.2,20h14.8L402.6,37.9z
		 M456.3,50.9c-1.2,2.4-3.1,5.2-4,7.5c-0.9,4.2-1.2,9.9-1.2,16c0,2.6,0.5,6.1,1.6,7.3h-15.6c2.8-2.6,3.8-18.4,3.8-23.6
		c-2.1-7.1-5-14.1-9.2-22.6c-2.8-5.2-5.9-10.1-8-11.1c3.5-0.2,8-0.5,10.1-0.5c3.8,0,5,0.5,7.3,5.7c3.8,8.5,6.4,14.8,8,19.3
		c3.8-6.1,6.6-10.4,10.1-16.3c0.7-1.4,1.6-3.3,1.6-4.9c0-1.2-0.2-2.8-0.7-3.3h15.3C472.3,25.2,459.1,46.2,456.3,50.9 M508.2,37.9
		c-2.4-4.2-7.5-7.5-13.2-7.5c-5,0-9.2,1.9-9.2,7.1c0,4.5,5.4,7.3,11.1,11.1c6.1,3.8,12.5,8.5,12.5,16.7c0,10.6-10.4,17.4-22.6,17.4
		c-5,0-10.1-0.9-16-3.1l0.9-14.1c2.8,5.7,8,10.1,15.8,10.1c5.9,0,10.6-2.8,10.6-8c0-4.2-3.5-7.1-8-9.7c-9.4-5.7-15.3-10.1-15.3-18.4
		c0-12.3,10.1-16.3,21-16.3c6.1,0,10.1,1.2,13.9,1.2L508.2,37.9z"/>
	<path class="st0" d="M120.4,32.7c-0.7-1.6-1.9-3.5-4-4.9c-0.9-0.7-2.1-1.4-3.3-1.9c-0.9-0.2-1.9-0.5-3.1-0.5h-0.2
		c-1.4,0-4,0.2-5.4,2.4c-0.7,0.7-0.9,2.1-0.7,3.3c0.2,0.9,0.9,1.9,1.9,2.1c0,0,0.2,0.2,0.7,0.2c0,0.2-0.2,0.7-0.2,0.7
		c-0.7,0.7-1.9,1.9-5.4,1.9h-0.2c-1.9-0.2-3.3-0.7-5.4-2.8c-1.2-1.4-1.9-4-1.9-8c0-2.1-0.2-3.8-0.7-5.2c-0.2-0.9-1.2-1.9-1.9-2.4
		c-0.7-0.5-1.2-0.7-2.4-1.2c-1.4-0.2-2.8-0.5-4-0.5c-1.4,0-2.4,0.2-2.8,0.9h-1.4l-2.4,0.2c-1.4,0.2-2.4,0.9-3.3,1.6
		c-0.2,0.2-1.2,1.2-1.4,2.1c0,0.7,0.2,1.4,0.2,1.6l0.2,0.2c0.5-0.5,1.4-0.7,2.6-0.7c1.6,0,4,0.7,4.5,1.9c1.2,1.9,0.7,3.3,0.7,4.9
		c-0.7,4.5-2.4,6.6-5.9,7.1c-0.7,0.2-1.4,0.2-1.9,0.2c-2.6,0-4.5-0.7-5.4-2.4v-0.5c0,0,0.2,0,0.5-0.2c0.9-0.5,1.6-1.2,1.9-2.1
		c0.2-1.2,0-2.4-0.7-3.3c-1.4-1.4-3.3-2.4-5.4-2.4c-1.4,0-2.4,0.2-3.3,0.5c-2.8,0.7-5.4,3.1-7.3,6.8c-1.4,2.8-2.4,6.1-2.6,9.9
		c-0.2,3.8-0.2,6.8,0,9.7c0.2,4.7,1.2,7.5,2.4,10.6c1.2,3.1,2.6,5.9,4.2,8.5c0.5,0.7,0.7,1.4,1.2,1.9l0.2-0.2
		c0.2-0.2,0.5-0.5,0.7-0.9c0.9-0.7,2.6-3.1,3.1-3.8c0.5-0.7,1.2-1.9,1.6-3.1l0.2-0.5L65,65c0.5,0.5,0.7,1.2,0.7,1.9
		c0,0.7-0.2,1.4-0.7,2.8c-0.5,1.6-1.4,3.5-2.4,5.4c0.2,0.2,0.2,0.7,0,0.7C62,77,62,77.5,62,78h0.2c0.2,0,1.2-0.2,1.9-0.9
		c0.7-0.5,2.6-2.1,4.9-5.4c1.9-2.4,3.1-4.9,4.5-7.8l0.2-0.5l0.5,0.2l0.7,0.5c0.2,0.5,0.2,1.2,0.2,1.9c-0.2,1.9-1.4,4.5-2.1,6.4
		c-1.4,3.3-4,6.8-5.9,9.4c0,0.2-0.5,0.7-0.7,0.7c0.2,0.2,0.5,0.5,0.9,0.7l0.7,0.7c2.6,2.1,4.9,3.8,8,5.4c2.4,1.4,7.1,3.8,10.4,4.7
		c3.3-0.7,8-3.3,10.4-4.7c3.1-1.6,5.4-3.3,8-5.4l0.7-0.7l0.9-0.7c0.2-0.5,0.2-0.7,0.2-0.9l-0.2-0.2c-1.9-2.4-4.5-6.1-5.9-9.4
		c-0.7-1.9-1.9-4.5-2.1-6.4c-0.2-0.7,0-1.4,0.2-1.9l0.5-0.5c0.2-0.2,0.7-0.2,0.7-0.2l0.2,0.5c1.4,2.8,2.8,5.4,4.5,7.8
		c2.4,3.3,4.2,4.9,4.9,5.4c0.7,0.7,1.4,0.9,1.9,0.9h0.2c0.2-0.2,0-0.7-0.7-1.9c-0.2-0.2-0.2-0.5-0.2-0.7c-0.9-1.9-1.9-3.8-2.4-5.4
		c-0.5-1.4-0.7-2.4-0.7-2.8c0-0.7,0.2-1.4,0.7-1.9l0.5-0.2l0.2,0.5c0.5,1.2,1.4,2.6,1.9,3.3l2.8,3.5c0.5,0.5,0.7,0.7,0.7,0.9
		l0.2,0.2c0.2-0.2,0.5-0.7,0.9-1.6l0.2-0.2c1.4-2.4,2.8-5.4,4-8.5c1.2-2.8,1.9-5.9,2.4-10.6c0.2-2.8,0.5-5.9,0-9.7
		C122.6,38.9,121.6,35.3,120.4,32.7L120.4,32.7z"/>
</g>
</svg>
